<?xml version="1.0" encoding="utf-8"?>
<!-- Generator: Adobe Illustrator 21.1.0, SVG Export Plug-In . SVG Version: 6.00 Build 0)  -->
<svg version="1.1" id="Layer_2" xmlns="http://www.w3.org/2000/svg" xmlns:xlink="http://www.w3.org/1999/xlink" x="0px" y="0px"
	 viewBox="0 0 25 25" style="enable-background:new 0 0 25 25;" xml:space="preserve">
<style type="text/css">
	.st0{fill:#0B0935;}
</style>
<title>name</title>
<title>name</title>
<g>
	<path class="st0" d="M13.5,12.3c4.9-0.2,4.6-2.9,7.4-2.5c3.2,0.5,2.8,4.8,0,6.2c-1.1,0.5-2.9,0.6-3.1-0.8c0-0.5,0-1.2,1.2-0.8
		c-0.3,0-0.8,0-0.6,0.8c0.2,0.8,2.6,0.3,2.8-1.7c0.2-2.9-1.9-0.8-4.5-0.6C15.2,13.1,12.7,12.2,13.5,12.3z"/>
	<path class="st0" d="M15,13.6c0.6,0,1.4,0.8,1.9,1.1c0.5,0.5-4.3,10.2-4.9,10.2s-2.2-0.3-2.6-0.8l0.5,0.2
		C10.4,24.4,15.3,14.3,15,13.6z"/>
	<path class="st0" d="M8.2,22.2c0.2,1.1-1.5,0.3-2.2-0.8c-0.6-0.9-1.9-3.4-0.8-4.9c1.5-2.2,4.2-0.6,4.6-0.2v-1.2
		C9,14,8.4,13.7,7.7,9.1c-0.6-5.7,1.4-6.6,3.4-6c3.1,0.9,4.2,5.6,4.2,5.9s0.2,3.1,0.8-0.2c0.6-3.2-1.5-6.8-4.9-8
		C9.4,0.1,4.5-1.1,2.8,3.2c-2,4.9,2.9,10,2.5,10.5C4.8,14,1.4,15.3,2,19s4.3,5.4,6,5.7s1.2-2.5,1.2-2.9l-1.9-2
		C7.4,19.7,7.9,20.5,8.2,22.2z"/>
</g>
</svg>
