<?xml version="1.0" encoding="utf-8"?>
<!-- Generator: Adobe Illustrator 21.1.0, SVG Export Plug-In . SVG Version: 6.00 Build 0)  -->
<svg version="1.1" id="Layer_2" xmlns="http://www.w3.org/2000/svg" xmlns:xlink="http://www.w3.org/1999/xlink" x="0px" y="0px"
	 viewBox="0 0 192 192" style="enable-background:new 0 0 192 192;" xml:space="preserve">
<style type="text/css">
	.st0{fill:#02021E;}
	.st1{fill:#89C2FF;}
</style>
<title>name</title>
<title>name</title>
<g>
	<image style="overflow:visible;" width="166" height="193" xlink:href="BBAC10D7.png"  transform="matrix(1 0 0 1 15 0)">
	</image>
	<g>
		<g>
			<g>
				<path class="st0" d="M104.6,95.2c35.4-1.7,33.2-21,53.4-18.2c23,3.4,20.2,34.6,0,44.8c-7.9,3.4-20.8,4.5-22.5-5.7
					c0-3.4,0-8.5,8.4-5.7c-2.2,0-5.6,0-4.5,5.7c1.7,5.7,18.5,2.3,20.2-12.5c1.7-21-13.5-5.7-32.6-4.5C117,100.9,99,94.6,104.6,95.2z
					"/>
				<path class="st1" d="M104.6,94.5c2.9-0.2,5.9-0.4,8.8-0.9c2.9-0.5,5.8-1.1,8.7-2c2.8-0.9,5.6-2.1,8.1-3.5c2.6-1.4,5-3.1,7.4-4.9
					c2.4-1.8,4.8-3.6,7.6-5c1.4-0.7,2.9-1.2,4.4-1.5c1.5-0.3,3.1-0.5,4.6-0.4c3.1,0.1,6.1,0.6,9,1.7c1.4,0.6,2.8,1.3,4.1,2.2
					c1.2,0.9,2.4,2,3.3,3.2c1.9,2.4,3.1,5.4,3.7,8.4c0.5,3,0.5,6.1-0.1,9.1c-1.2,6-4.2,11.6-8.5,15.9c-2.2,2.1-4.6,4-7.4,5.4
					c-2.8,1.2-5.8,2-8.8,2.4c-1.5,0.1-3,0.2-4.6,0c-0.8,0-1.5-0.2-2.3-0.4c-0.7-0.2-1.5-0.4-2.2-0.8c-0.7-0.3-1.4-0.7-2-1.2
					c-0.3-0.2-0.6-0.5-0.9-0.8l-0.4-0.4l-0.3-0.5c-1-1.2-1.4-2.8-1.7-4.3l0,0l0,0c0-1.1,0-2.2,0.3-3.4c0.2-1.1,0.8-2.3,1.9-2.9
					c1.1-0.6,2.3-0.6,3.4-0.5c0.6,0,1.1,0.2,1.7,0.3c0.5,0.1,1.1,0.3,1.6,0.5l2,0.6l-2.1,0c-0.7,0-1.5,0-2.2,0.2
					c-0.7,0.1-1.3,0.5-1.7,1c-0.4,0.5-0.5,1.3-0.6,2c0,0.7,0.1,1.4,0.2,2.2l0,0c0.4,1.3,1.8,2.1,3.2,2.3c1.4,0.2,2.9,0.1,4.3-0.3
					c2.8-0.7,5.5-2.3,7.5-4.4c2.1-2.1,3.5-4.8,4.3-7.6c0.4-1.4,0.5-2.9,0.6-4.4c0-1.5,0-3-0.3-4.4c-0.3-1.4-0.9-2.9-2-3.7
					c-1.2-0.8-2.8-0.9-4.2-0.7c-2.9,0.4-5.8,1.4-8.6,2.3c-5.6,1.9-11.4,3.6-17.4,4l0,0c-2.1,0.3-4.2,0.3-6.3,0.2
					c-2.1-0.1-4.2-0.4-6.3-0.8c-2.1-0.4-4.1-0.9-6.2-1.4c-1-0.3-2-0.6-3-1c-0.5-0.2-1-0.4-1.4-0.6c-0.1-0.1-0.2-0.1-0.3-0.2
					c-0.1-0.1,0-0.1,0.1-0.2c0.1,0,0.1,0,0.2,0c0.3,0,0.5,0,0.8,0L104.6,94.5z M109.1,95.6l-4.5-0.4c-0.3,0-0.5,0-0.8,0
					c-0.1,0-0.3,0-0.2,0.2c0.1,0.1,0.2,0.2,0.3,0.2c0.5,0.3,1,0.4,1.4,0.6c1,0.4,2,0.7,3,0.9c2,0.6,4.1,1,6.2,1.4
					c2.1,0.4,4.2,0.6,6.3,0.8c2.1,0.1,4.2,0.1,6.3-0.2l0,0l0,0c6-0.4,11.7-2.1,17.3-4.1c2.8-0.9,5.6-2,8.6-2.4
					c1.5-0.2,3.1-0.1,4.4,0.7c1.3,0.9,1.9,2.4,2.2,3.9c0.3,1.5,0.3,3,0.3,4.5c-0.1,1.5-0.2,3-0.6,4.5c-0.7,2.9-2.2,5.7-4.3,7.8
					c-2.1,2.2-4.8,3.8-7.7,4.5c-1.5,0.4-3,0.5-4.5,0.3c-0.8-0.1-1.5-0.3-2.2-0.8c-0.7-0.4-1.2-1.1-1.5-1.9l0,0l0,0
					c-0.1-0.8-0.3-1.5-0.2-2.3c0-0.8,0.2-1.6,0.6-2.3c0.5-0.7,1.3-1.1,2-1.3c0.8-0.2,1.6-0.2,2.3-0.2l-0.1,0.6
					c-0.5-0.1-1-0.3-1.6-0.5c-0.5-0.1-1.1-0.3-1.6-0.3c-1-0.1-2.2-0.1-3,0.4c-0.9,0.5-1.4,1.4-1.6,2.5c-0.2,1-0.2,2.1-0.2,3.2l0-0.1
					c0.5,2.9,2.2,5.5,5,6.6c0.6,0.3,1.4,0.5,2.1,0.7c0.7,0.1,1.4,0.3,2.2,0.3c1.5,0.2,2.9,0.1,4.4-0.1c2.9-0.4,5.8-1.1,8.5-2.3
					c2.6-1.4,5-3.1,7.1-5.2c4.2-4.2,7.1-9.6,8.2-15.4c0.6-2.9,0.6-5.9,0.1-8.8c-0.6-2.9-1.7-5.7-3.5-7.9c-0.9-1.2-2-2.1-3.1-3
					c-1.2-0.8-2.5-1.6-3.8-2.1c-2.7-1.1-5.7-1.6-8.6-1.6c-1.5,0-2.9,0.1-4.3,0.4c-1.4,0.3-2.8,0.8-4.1,1.5c-2.6,1.3-5,3.1-7.4,4.9
					c-2.4,1.8-4.9,3.6-7.5,5.1c-2.6,1.5-5.5,2.7-8.4,3.7c-2.9,1-5.9,1.6-8.9,2.1C112.1,95.3,110.6,95.4,109.1,95.6z"/>
			</g>
			<g>
				<path class="st0" d="M115.3,104.8c4.5,0,10.1,5.7,13.5,7.9c3.4,3.4-30.9,73.7-35.4,73.7s-15.7-2.3-18.5-5.7l3.4,1.7
					C82.1,183.1,117.5,110,115.3,104.8z"/>
				<path class="st1" d="M115.1,104.3c0.1,0,0.3-0.1,0.5-0.1c0.3,0,0.7,0,0.9,0c0.4,0.1,0.7,0.1,1.1,0.3c0.7,0.2,1.3,0.5,2,0.8
					c1.2,0.6,2.4,1.4,3.5,2.1c1.1,0.8,2.1,1.6,3.2,2.4c1,0.8,2.1,1.7,3.1,2.4l0.1,0.1l0,0c0.2,0.2,0.3,0.5,0.3,0.7
					c0.1,0.2,0.1,0.4,0.1,0.5c0,0.3,0,0.6,0,0.9c-0.1,0.6-0.2,1.1-0.3,1.6c-0.3,1.1-0.6,2.1-0.9,3.1c-0.7,2-1.4,4-2.2,6
					c-1.6,4-3.3,7.9-5,11.8c-3.5,7.8-7.2,15.5-11.1,23.1c-1.9,3.8-3.9,7.6-6,11.3c-2.1,3.7-4.2,7.5-6.5,11c-0.6,0.9-1.2,1.8-1.9,2.6
					c-0.4,0.4-0.7,0.8-1.1,1.2c-0.2,0.2-0.4,0.4-0.8,0.5c-0.5,0.2-0.7,0.1-1,0.1c-2.2-0.1-4.3-0.4-6.4-0.9c-2.1-0.4-4.2-1-6.2-1.7
					c-2-0.8-4.1-1.6-5.6-3.3l-1.2-1.3l1.6,0.8l3.4,1.7l-0.1,0c0,0,0.2-0.1,0.4-0.2c0.2-0.1,0.3-0.3,0.5-0.4c0.3-0.3,0.6-0.7,0.8-1
					c0.5-0.7,1-1.5,1.5-2.2c1-1.5,1.9-3.1,2.8-4.6c1.8-3.1,3.5-6.3,5.2-9.5c3.4-6.4,6.6-12.8,9.8-19.4c3.1-6.5,6.2-13.1,9.1-19.7
					c1.4-3.3,2.8-6.6,4.1-10c0.6-1.7,1.3-3.4,1.8-5.1c0.3-0.9,0.5-1.7,0.7-2.6c0.1-0.4,0.2-0.9,0.3-1.3c0-0.4,0.1-0.9,0-1.3
					L115.1,104.3z M115,104.2l0.3,0.7c0.2,0.4,0.1,0.9,0.1,1.3c-0.1,0.4-0.1,0.9-0.2,1.3c-0.2,0.9-0.5,1.8-0.7,2.6
					c-0.5,1.7-1.1,3.4-1.8,5.1c-1.3,3.4-2.7,6.7-4.1,10.1c-2.8,6.7-5.8,13.2-8.9,19.8c-3.1,6.5-6.3,13-9.6,19.4
					c-1.7,3.2-3.4,6.4-5.2,9.5c-0.9,1.6-1.8,3.1-2.8,4.7c-0.5,0.8-1,1.5-1.5,2.3c-0.3,0.4-0.6,0.7-0.9,1.1c-0.2,0.2-0.3,0.3-0.5,0.5
					c-0.1,0.1-0.2,0.2-0.3,0.2c-0.1,0.1-0.3,0.1-0.5,0.1l0,0l-0.1,0l-3.4-1.7l0.4-0.5c1.4,1.5,3.4,2.3,5.4,3c2,0.7,4,1.2,6.1,1.6
					c2.1,0.4,4.2,0.7,6.3,0.8c0.2,0,0.6,0,0.6,0c0.2-0.1,0.4-0.2,0.5-0.4c0.4-0.3,0.7-0.7,1-1.1c0.6-0.8,1.2-1.7,1.8-2.6
					c2.3-3.6,4.4-7.3,6.4-11c2-3.7,4-7.5,5.9-11.3c3.8-7.6,7.5-15.3,10.9-23.1c1.7-3.9,3.4-7.8,4.9-11.8c0.8-2,1.5-4,2.2-6
					c0.3-1,0.6-2,0.9-3c0.1-0.5,0.2-1,0.3-1.5c0-0.2,0-0.5,0-0.7c0-0.2-0.1-0.4,0-0.3l0.1,0.1c-1.1-0.8-2.2-1.6-3.2-2.4
					c-1-0.8-2.1-1.6-3.1-2.4c-1.1-0.7-2.2-1.4-3.3-2c-0.6-0.3-1.1-0.5-1.7-0.7c-0.3-0.1-0.6-0.1-0.9-0.2c-0.2,0-0.1,0-0.1-0.1
					c0-0.1,0-0.2-0.1-0.3L115,104.2z"/>
			</g>
			<g>
				<path class="st0" d="M66.4,167.2c1.7,7.9-10.7,2.3-15.7-5.7c-4.5-6.8-13.5-24.4-5.6-35.7c10.7-15.9,30.3-4.5,33.2-1.7v-8.5
					c-5.6-7.9-10.1-10.2-15.2-43.7c-4.5-41.4,10.1-47.6,24.2-43.7c22.5,6.8,30.3,40.8,30.3,42.5c0,1.7,1.7,22.7,5.6-1.7
					c4.5-23.3-10.7-49.4-35.4-57.9C75.4,6.7,40-1.8,27.6,29.4c-14.6,35.7,20.8,72.6,18,76c-3.4,2.3-28.1,11.3-23.6,38.6
					s30.9,39.1,43.3,41.4s8.4-18.2,8.4-21l-13.5-14.7C60.8,149.1,64.1,154.8,66.4,167.2z"/>
				<path class="st1" d="M66.9,170.3c-0.1,0.1-0.1,0.3-0.2,0.4c-0.4,0.6-1.1,0.9-1.7,1.1c-0.6,0.1-1.2,0.1-1.8,0
					c-2.2-0.4-4.1-1.4-5.9-2.5c-1.8-1.2-3.4-2.5-4.8-4.1c-0.7-0.8-1.4-1.6-2-2.5c-0.6-0.9-1.1-1.7-1.7-2.6
					c-2.1-3.5-3.9-7.3-5.3-11.2c-1.4-3.9-2.3-8-2.3-12.2c0-2.1,0.3-4.2,0.9-6.2c0.6-2,1.6-4,2.9-5.6c1.2-1.7,2.7-3.3,4.4-4.5
					c1.7-1.3,3.7-2.2,5.7-2.7c4.1-1.1,8.5-0.7,12.4,0.4c2,0.6,3.9,1.3,5.8,2.3c1.9,1,3.7,1.9,5.3,3.4l-1.1,0.5l0-8.5l0.1,0.4
					c-1.2-1.7-2.6-3.4-3.8-5.2c-1.3-1.8-2.4-3.7-3.3-5.6c-1.9-3.9-3.1-8.1-4.2-12.2c-1-4.2-1.9-8.4-2.6-12.6
					c-0.7-4.2-1.5-8.5-1.8-12.8c-0.3-4.3-0.5-8.6-0.3-12.9c0.2-4.3,0.6-8.6,1.8-12.8c1.1-4.2,3-8.3,6.3-11.3
					c1.7-1.5,3.6-2.6,5.8-3.2c2.1-0.6,4.4-0.8,6.5-0.6c4.4,0.4,8.6,1.9,12.3,4.2c1.9,1.1,3.6,2.5,5.2,4c1.6,1.5,3.1,3.1,4.4,4.7
					c1.4,1.7,2.6,3.4,3.8,5.3c1.2,1.8,2.2,3.7,3.2,5.6c2,3.8,3.6,7.8,4.9,11.9c0.7,2,1.3,4.1,1.8,6.2c0.1,0.5,0.2,1.1,0.3,1.6
					c0,0.1,0,0.3,0.1,0.5l0,0.4l0,0.8c0.1,1.1,0.2,2.1,0.3,3.2c0.1,1.1,0.3,2.1,0.5,3.1c0.1,0.5,0.3,1,0.4,1.5
					c0.1,0.2,0.2,0.4,0.3,0.6c0.1,0.1,0.1,0.1,0.1,0.1c0,0,0,0,0,0c0.2-0.1,0.5-0.7,0.7-1.1c0.2-0.5,0.4-1,0.5-1.5
					c0.3-1,0.5-2,0.8-3.1c0.4-2.1,0.8-4.2,1.1-6.3l0.4-3.1c0.2-1,0.1-2.1,0.2-3.2l0.1-1.6c0-0.5-0.1-1.1-0.1-1.6
					c-0.1-1.1-0.1-2.1-0.2-3.2c-0.3-2.1-0.6-4.2-1.1-6.3c-0.4-2.1-1.2-4.1-1.9-6.1c-0.4-1-0.8-1.9-1.2-2.9l-0.6-1.5
					c-0.2-0.5-0.5-0.9-0.7-1.4l-1.5-2.8l-1.8-2.7c-0.3-0.4-0.6-0.9-0.9-1.3l-1-1.3c-0.7-0.8-1.3-1.7-2-2.5c-1.5-1.5-2.8-3.2-4.5-4.5
					c-0.8-0.7-1.5-1.5-2.4-2.1l-2.5-1.9c-3.5-2.4-7.2-4.6-11.2-6.1c-3.9-1.6-8-2.8-12.2-3.8C73.5,7.8,69.3,7.2,65,7
					C62.9,7,60.8,7,58.6,7.2c-1.1,0.1-2.1,0.2-3.2,0.3c-1,0.2-2.1,0.3-3.1,0.6C48.2,9,44.2,10.7,40.7,13c-3.5,2.4-6.5,5.4-8.9,9
					c-2.3,3.5-4.1,7.5-5.3,11.5c-2.5,8.1-2.7,16.9-1.1,25.3c1.6,8.4,4.8,16.4,8.6,24c1.9,3.8,4.1,7.5,6.2,11.2l3.3,5.5
					c0.5,0.9,1.1,1.9,1.5,2.8c0.2,0.5,0.5,1,0.6,1.5c0.1,0.3,0.2,0.5,0.2,0.8c0,0.3,0,0.6-0.2,0.9l0,0l0,0c-1.3,0.8-2.6,1.4-3.8,2.1
					c-1.3,0.7-2.5,1.4-3.7,2.2c-2.4,1.6-4.8,3.3-6.8,5.3c-2.1,2-3.9,4.3-5.4,6.7c-1.5,2.5-2.6,5.2-3.3,8c-1.4,5.6-1.1,11.6,0.2,17.2
					c1.3,5.7,3.8,11,7.1,15.7c6.7,9.5,16.8,16.3,27.6,20.3c2.7,1,5.5,1.8,8.4,2.3c1.4,0.2,2.9,0.1,4.2-0.6c0.6-0.3,1.2-0.8,1.7-1.4
					c0.4-0.6,0.8-1.2,1.1-1.8c0.6-1.3,0.9-2.7,1.1-4.2c0.2-1.4,0.3-2.9,0.3-4.3c0-2.9-0.4-5.8-0.6-8.7l0,0l-13.5-14.8l0,0l0,0
					c0.1-0.1,0.2,0,0.3,0c0.1,0.1,0.2,0.1,0.2,0.2c0.1,0.1,0.3,0.3,0.4,0.5c0.2,0.3,0.4,0.7,0.6,1c0.4,0.7,0.7,1.4,1,2.2
					c0.6,1.5,1.1,3,1.6,4.5c0.9,3,1.6,6.1,2.2,9.2L66.9,170.3z M66.4,167.2c-0.6-3.1-1.3-6.2-2.2-9.2c-0.5-1.5-1-3-1.6-4.5
					c-0.3-0.7-0.6-1.5-1-2.2c-0.2-0.3-0.4-0.7-0.6-1c-0.1-0.2-0.2-0.3-0.4-0.5c-0.1-0.1-0.3-0.3-0.5-0.2l0,0l13.5,14.7l0,0l0,0
					c0.2,2.9,0.6,5.8,0.6,8.7c0,1.5-0.1,2.9-0.2,4.4c-0.2,1.4-0.5,2.9-1.1,4.2c-0.3,0.7-0.7,1.3-1.1,1.9c-0.5,0.5-1,1-1.7,1.4
					c-1.3,0.7-2.8,0.8-4.3,0.6c-2.9-0.4-5.7-1.3-8.4-2.3c-5.5-2-10.7-4.7-15.4-8.1c-4.7-3.4-9-7.5-12.3-12.2
					c-3.4-4.7-5.9-10.1-7.2-15.8c-1.3-5.7-1.7-11.6-0.3-17.3c0.7-2.8,1.8-5.6,3.3-8.1c1.5-2.5,3.4-4.8,5.5-6.8
					c2.1-2,4.4-3.8,6.9-5.4c1.2-0.8,2.5-1.5,3.8-2.2c1.3-0.7,2.6-1.3,3.8-2.1l0,0c0.2-0.3,0.1-0.9-0.1-1.4c-0.2-0.5-0.4-1-0.6-1.4
					c-0.5-1-1-1.9-1.5-2.8l-3.3-5.5c-2.2-3.7-4.3-7.4-6.3-11.2c-3.9-7.6-7.1-15.7-8.7-24.1c-1.6-8.4-1.5-17.3,1-25.5
					c1.3-4.1,3-8.1,5.4-11.7c2.4-3.6,5.5-6.7,9-9.2c3.6-2.4,7.7-4.1,11.9-5c1-0.3,2.1-0.4,3.2-0.6c1.1-0.1,2.1-0.3,3.2-0.4
					c2.1-0.2,4.3-0.2,6.4-0.1c4.3,0.1,8.6,0.7,12.8,1.6c4.2,0.9,8.3,2.1,12.3,3.8c4,1.5,7.8,3.7,11.3,6.1l2.6,1.9
					c0.9,0.6,1.6,1.4,2.4,2.1c1.7,1.4,3.1,3,4.5,4.6c0.7,0.8,1.3,1.7,2,2.5l1,1.3c0.3,0.4,0.6,0.9,0.9,1.3l1.8,2.7l1.6,2.8
					c0.3,0.5,0.5,0.9,0.8,1.4l0.7,1.5c0.4,1,0.9,2,1.3,3c0.7,2,1.5,4.1,1.9,6.2c0.6,2.1,0.8,4.2,1.2,6.4c0.1,1.1,0.1,2.2,0.2,3.2
					c0,0.5,0.1,1.1,0.1,1.6l-0.1,1.6c-0.1,1.1,0,2.2-0.2,3.2l-0.4,3.2c-0.3,2.1-0.7,4.2-1.1,6.3c-0.2,1.1-0.5,2.1-0.8,3.1
					c-0.2,0.5-0.3,1-0.5,1.6c-0.2,0.5-0.4,1-1,1.5c-0.2,0.1-0.5,0.2-0.8,0.1c-0.2-0.1-0.4-0.3-0.5-0.4c-0.2-0.3-0.3-0.5-0.4-0.8
					c-0.2-0.5-0.4-1.1-0.5-1.6c-0.2-1.1-0.4-2.1-0.5-3.2c-0.1-1.1-0.2-2.1-0.3-3.2l-0.1-0.8l0-0.4c0-0.1,0-0.2,0-0.3
					c-0.1-0.5-0.2-1-0.3-1.5c-0.5-2.1-1.1-4.1-1.8-6.1c-2.7-8-6.5-15.8-11.8-22.4c-1.3-1.6-2.8-3.2-4.3-4.6c-1.5-1.4-3.2-2.7-5-3.8
					c-3.5-2.3-7.6-3.7-11.8-4c-2.1-0.2-4.2,0-6.2,0.6c-2,0.6-3.8,1.6-5.4,3c-3.1,2.8-4.9,6.8-6,10.8c-1.1,4.1-1.5,8.3-1.7,12.6
					c-0.2,4.2,0,8.5,0.4,12.8c0.3,4.2,1.1,8.4,1.8,12.6c0.7,4.2,1.6,8.4,2.6,12.5c1,4.1,2.3,8.2,4.1,12c0.9,1.9,2,3.7,3.2,5.4
					c1.2,1.7,2.6,3.4,3.8,5.2l0.1,0.2l0,0.2l0,8.5l0,1.5l-1.1-1c-1.4-1.3-3.2-2.3-5-3.2c-1.8-0.9-3.7-1.6-5.6-2.2
					c-3.8-1.1-7.9-1.5-11.7-0.4c-3.8,1-7.1,3.5-9.4,6.7c-2.4,3.1-3.5,7.1-3.4,11.1c0,4,0.9,7.9,2.3,11.7c1.3,3.8,3.1,7.5,5.2,10.9
					c0.5,0.9,1.1,1.7,1.6,2.5c0.6,0.8,1.2,1.6,1.9,2.3c1.3,1.5,2.9,2.7,4.5,3.8c1.6,1.1,3.5,2,5.3,2.3c0.9,0.1,1.8,0,2.1-0.5
					c0.4-0.5,0.4-1.5,0.2-2.4L66.4,167.2z"/>
			</g>
		</g>
	</g>
</g>
</svg>
