<svg id="Layer_2" data-name="Layer 2" xmlns="http://www.w3.org/2000/svg" width="330" height="105" viewBox="0 0 330 105">
  <defs>
    <style>
      .cls-1 {
        fill: #fff;
      }
    </style>
  </defs>
  <title>name</title>
  <path class="cls-1" d="M53,22h5c1-1,8-12,2-14S42,8,33,19s-1,18,0,20S10,53,8,70,22,91,29,92s26-6,30-18-1-2-2-2S44,89,32,86,18,72,31,55,45,41,50,39l2-3c-2,1-13,3-14-7s7-16,11-18,13,0,9,5S53,22,53,22Z"/>
  <path class="cls-1" d="M134,46c2,3,4,6,4,7s-6,6-16,13-8,3-4,0,16-11,16-13-6-9-16-3-7,9-5,16,11,12,18,8a11,11,0,0,0,6-6c1-2,4-5,4-4s-3,13-14,15-21,1-23-15,7-18,11-20S131,43,134,46Z"/>
  <path class="cls-1" d="M88,19c1-1,4-5,8,1s-4,50-3,53,1,3,2,2-4,5-7,2-2-11-1-16,4-41,3-42S87,20,88,19Z"/>
  <path class="cls-1" d="M69,19c1-1,4-5,8,1s-4,50-3,53,1,3,2,2-4,5-7,2-2-11-1-16,4-41,3-42S68,20,69,19Z"/>
  <g>
    <path class="cls-1" d="M159,23c7-1,18-11,35-8s16,30,2,33-12,2-14,1,17-4,16-17-14-11-31-7C162,25,155,23,159,23Z"/>
    <path class="cls-1" d="M171,24c1-1,6,2,7,3s0,50-1,51-7,1-8,0h1C171,77,172,27,171,24Z"/>
  </g>
  <path class="cls-1" d="M236,56c-4-13-13-15-21-13s-16,11-14,24,17,12,24,11S240,68,236,56ZM224,72c-5,2-12-1-13-9s2-16,9-17,10,1,13,13S229,71,224,72Z"/>
  <g>
    <path class="cls-1" d="M238,48c8,0,14-5,26-5s16,8,16,17-2,16-9,17-14,2-15,1,16,1,15-18-8-13-25-10C242,50,237,50,238,48Z"/>
    <path class="cls-1" d="M246,52c2-1,6,1,7,2s0,43-1,45-7,7-9,6,0-3,1-4S247,55,246,52Z"/>
  </g>
  <path class="cls-1" d="M316,46c2,3,4,6,4,7s-6,6-16,13-8,3-4,0,16-11,16-13-6-9-16-3-7,9-5,16,11,12,18,8a11,11,0,0,0,6-6c1-2,4-5,4-4s-3,13-14,15-21,1-23-15,7-18,11-20S313,43,316,46Z"/>
</svg>
